# xmcd
#
# Track frame offsets:
#	150
#	23170
#	33720
#	50955
#	63573
#	77730
#	88745
#	97908
#	117255
#	134758
#	145018
#	155898
#	167938
#	182117
#	194385
#	213275
#	225750
#
# Disc length: 3252 seconds
#
# Revision: 1
# Processed by: cddbd v1.5.1PL0 Copyright (c) Steve Scherf et al.
# Submitted via: audiograbber 1.82.02
#
DISCID=f40cb211
DTITLE=J.J. Cale - The Ultimate Collection - Disc 2
DYEAR=1900
DGENRE=Blues
TTITLE0=Sensitive kind
TTITLE1=Carry on
TTITLE2=Mama don't
TTITLE3=City girls
TTITLE4=Don't wait
TTITLE5=Downtown L.A.
TTITLE6=Devil in disguise
TTITLE7=Money talks
TTITLE8=Hard times
TTITLE9=Teardrops in my tequila
TTITLE10=Change your mind
TTITLE11=Lady luck
TTITLE12=Lonesome train
TTITLE13=Jailer
TTITLE14=Borrowed time
TTITLE15=Low down
TTITLE16=Guitar man
EXTD=
EXTT0=
EXTT1=
EXTT2=
EXTT3=
EXTT4=
EXTT5=
EXTT6=
EXTT7=
EXTT8=
EXTT9=
EXTT10=
EXTT11=
EXTT12=
EXTT13=
EXTT14=
EXTT15=
EXTT16=
PLAYORDER=
